<?xml version="1.0" encoding="utf-8"?>
<svg viewBox="0 0 100 100" xmlns="http://www.w3.org/2000/svg">
  <path class="playlist-video-icon-fill-color playlist-video-icon-path" d="M 35 66 L 15 66 C 13.9 66 13 66.9 13 68 L 13 80 C 13 81.1 13.9 82 15 82 L 35 82 C 36.1 82 37 81.1 37 80 L 37 68 C 37 66.9 36.1 66 35 66 Z M 33 78 L 17 78 L 17 70 L 33 70 L 33 78 Z M 35 42 L 15 42 C 13.9 42 13 42.9 13 44 L 13 56 C 13 57.1 13.9 58 15 58 L 35 58 C 36.1 58 37 57.1 37 56 L 37 44 C 37 42.9 36.1 42 35 42 Z M 33 54 L 17 54 L 17 46 L 33 46 L 33 54 Z M 35 18 L 15 18 C 13.9 18 13 18.9 13 20 L 13 32 C 13 33.1 13.9 34 15 34 L 35 34 C 36.1 34 37 33.1 37 32 L 37 20 C 37 18.9 36.1 18 35 18 Z M 33 30 L 17 30 L 17 22 L 33 22 L 33 30 Z M 76.4 30.8 C 75.60000000000001 30 74.80000000000001 29.3 73.9 28.7 L 81.4 21.5 C 82.7 20.2 81.80000000000001 18.1 80 18.1 L 47 18.1 C 45.9 18.1 45 19 45 20.1 L 45 51.8 C 45 53.599999999999994 47.1 54.5 48.4 53.3 L 56.4 45.599999999999994 C 56.6 45.8 56.9 45.99999999999999 57.1 46.199999999999996 C 60.7 49.599999999999994 62.6 54.199999999999996 62.6 59 C 62.6 63.8 60.7 68.3 57.1 71.6 C 54 74.6 51.1 76.39999999999999 46.7 76.8 C 44.6 77 44.1 80.1 46.300000000000004 80.7 C 49.400000000000006 81.60000000000001 51.300000000000004 82.10000000000001 54.5 82.10000000000001 C 58.7 82.10000000000001 62.7 81.30000000000001 66.4 79.9 C 70.10000000000001 78.4 73.5 76.2 76.5 73.4 C 82.4 67.7 87 60.1 87 52.1 C 87 44.1 82.4 36.5 76.4 30.8 Z M 73.80000000000001 70.4 C 68.80000000000001 75.2 62.10000000000001 77.9 55.000000000000014 78 C 56.80000000000001 77 58.500000000000014 75.8 60.000000000000014 74.4 C 64.30000000000001 70.30000000000001 66.70000000000002 64.7 66.70000000000002 58.900000000000006 C 66.70000000000002 53.00000000000001 64.30000000000001 47.400000000000006 59.90000000000002 43.2 C 59.10000000000002 42.400000000000006 58.30000000000002 41.800000000000004 57.50000000000002 41.2 C 56.90000000000002 40.800000000000004 55.80000000000002 40.6 55.00000000000002 41.400000000000006 L 49 47 L 49 22 L 75.1 22 L 69.5 27.4 C 69.1 27.799999999999997 68.8 28.4 68.9 29 C 69 29.6 69.30000000000001 30.1 69.80000000000001 30.5 C 71.20000000000002 31.4 72.50000000000001 32.5 73.70000000000002 33.6 C 78.90000000000002 38.5 83.00000000000001 45.1 83.00000000000001 52.1 C 83.00000000000001 59 78.90000000000002 65.5 73.80000000000001 70.4 Z" />
  <path class="playlist-video-icon-fill-color playlist-video-icon-path" d="M244-650v1684h-1784V-650H244m8-8h-1800v1700H252V-658z"/>
  <rect class="playlist-video-icon-fill-color" x="16.64" y="21.071" width="17.824" height="9.583" />
  <rect class="playlist-video-icon-fill-color" x="16.372" y="45.237" width="18.21" height="10.064" />
  <rect class="playlist-video-icon-fill-color" x="16.483" y="69.386" width="17.56" height="9.658" />
  <rect class="playlist-video-icon-fill-color" x="48.706" y="21.5" width="26.819" height="3.769" />
  <rect class="playlist-video-icon-fill-color" x="48.769" y="25.315" width="24.898" height="19.467" />
  <rect class="playlist-video-icon-fill-color" x="48.089" y="43.65" width="4.327" height="3.727" />
  <rect class="playlist-video-icon-fill-color" x="63.553" y="40.06" width="6.893" height="36.39" />
  <rect class="playlist-video-icon-fill-color" x="70.402" y="33.563" width="7.627" height="35.315" />
  <rect class="playlist-video-icon-fill-color" x="77.445" y="38.999" width="3.878" height="27.5" />
  <rect class="playlist-video-icon-fill-color" x="80.282" y="45.073" width="3.028" height="14.895" />
  <rect class="playlist-video-icon-fill-color" x="61.2" y="42.949" width="6.765" height="5.31" />
  <rect class="playlist-video-icon-fill-color" x="69.341" y="66.938" width="4.591" height="7.372" />
  <rect class="playlist-video-icon-fill-color" x="73.694" y="67.488" width="2.465" height="3.414" />
  <rect class="playlist-video-icon-fill-color" x="55.008" y="74.298" width="8.884" height="4.565" />
  <rect class="playlist-video-icon-fill-color" x="60.24" y="69.804" width="6.119" height="5.814" />
</svg>