<svg xmlns="http://www.w3.org/2000/svg" viewBox="0 0 100 100"><path class="playlist-video-icon-path" d="M35 66H15c-1.1 0-2 .9-2 2v12c0 1.1.9 2 2 2h20c1.1 0 2-.9 2-2V68c0-1.1-.9-2-2-2zm-2 12H17v-8h16v8zm2-36H15c-1.1 0-2 .9-2 2v12c0 1.1.9 2 2 2h20c1.1 0 2-.9 2-2V44c0-1.1-.9-2-2-2zm-2 12H17v-8h16v8zm2-36H15c-1.1 0-2 .9-2 2v12c0 1.1.9 2 2 2h20c1.1 0 2-.9 2-2V20c0-1.1-.9-2-2-2zm-2 12H17v-8h16v8zm43.4.8c-.8-.8-1.6-1.5-2.5-2.1l7.5-7.2c1.3-1.3.4-3.4-1.4-3.4H47c-1.1 0-2 .9-2 2v31.7c0 1.8 2.1 2.7 3.4 1.5l8-7.7c.2.2.5.4.7.6 3.6 3.4 5.5 8 5.5 12.8 0 4.8-1.9 9.3-5.5 12.6-3.1 3-6 4.8-10.4 5.2-2.1.2-2.6 3.3-.4 3.9 3.1.9 5 1.4 8.2 1.4 4.2 0 8.2-.8 11.9-2.2 3.7-1.5 7.1-3.7 10.1-6.5C82.4 67.7 87 60.1 87 52.1s-4.6-15.6-10.6-21.3zm-2.6 39.6c-5 4.8-11.7 7.5-18.8 7.6 1.8-1 3.5-2.2 5-3.6 4.3-4.1 6.7-9.7 6.7-15.5 0-5.9-2.4-11.5-6.8-15.7-.8-.8-1.6-1.4-2.4-2-.6-.4-1.7-.6-2.5.2L49 47V22h26.1l-5.6 5.4c-.4.4-.7 1-.6 1.6.1.6.4 1.1.9 1.5 1.4.9 2.7 2 3.9 3.1 5.2 4.9 9.3 11.5 9.3 18.5 0 6.9-4.1 13.4-9.2 18.3z"/><path class="playlist-video-icon-path" d="M244-650v1684h-1784V-650H244m8-8h-1800v1700H252V-658z"/></svg>